grf
version=1
nRows=7
nColumns=37
inDegrees=no
endheader
time	ground_force_1_vx	ground_force_1_vy	ground_force_1_vz	ground_force_1_px	ground_force_1_py	ground_force_1_pz	ground_moment_1_mx	ground_moment_1_my	ground_moment_1_mz	ground_force_2_vx	ground_force_2_vy	ground_force_2_vz	ground_force_2_px	ground_force_2_py	ground_force_2_pz	ground_moment_2_mx	ground_moment_2_my	ground_moment_2_mz	ground_force_3_vx	ground_force_3_vy	ground_force_3_vz	ground_force_3_px	ground_force_3_py	ground_force_3_pz	ground_moment_3_mx	ground_moment_3_my	ground_moment_3_mz	ground_force_4_vx	ground_force_4_vy	ground_force_4_vz	ground_force_4_px	ground_force_4_py	ground_force_4_pz	ground_moment_4_mx	ground_moment_4_my	ground_moment_4_mz
      2.50000000	      0.00000000	     -0.00000000	      0.00000000	      0.00000000	      0.00000000	      0.00000000	      0.00000000	      0.00000000	      0.00000000	     -2.29149556	     19.40247536	   -242.98779297	   -275.95042189	   -989.37911418	      0.00000000	      0.00000000	      0.00000000	   1543.75407474	      7.75972657	     -4.98772021	   -539.20001221	   -348.86759651	   -749.16573798	      0.00000000	      0.00000000	     -0.00000000	   -920.07004070	      0.00000000	     -0.00000000	      0.00000000	      0.00000000	      0.00000000	      0.00000000	      0.00000000	      0.00000000	      0.00000000
      2.51000000	      0.00000000	     -0.00000000	      0.00000000	      0.00000000	      0.00000000	      0.00000000	      0.00000000	      0.00000000	      0.00000000	     -2.18849301	     19.28565407	   -236.90615845	   -274.26671773	   -989.13315392	      0.00000000	      0.00000000	      0.00000000	   1526.06745685	      7.89525932	     -6.13570711	   -544.43676758	   -348.84878532	   -749.00303831	      0.00000000	      0.00000000	     -0.00000000	   -775.37587457	      0.00000000	     -0.00000000	      0.00000000	      0.00000000	      0.00000000	      0.00000000	      0.00000000	      0.00000000	      0.00000000
      2.52000000	      0.00000000	     -0.00000000	      0.00000000	      0.00000000	      0.00000000	      0.00000000	      0.00000000	      0.00000000	      0.00000000	     -2.70403075	     18.69748116	   -230.43789673	   -272.63725851	   -988.87955617	      0.00000000	      0.00000000	      0.00000000	   1197.70621163	      8.51623469	     -7.53488758	   -550.88427734	   -348.47281701	   -747.58078517	      0.00000000	      0.00000000	     -0.00000000	   -764.17666438	      0.00000000	     -0.00000000	      0.00000000	      0.00000000	      0.00000000	      0.00000000	      0.00000000	      0.00000000	      0.00000000
      2.53000000	      0.00000000	     -0.00000000	      0.00000000	      0.00000000	      0.00000000	      0.00000000	      0.00000000	      0.00000000	      0.00000000	     -2.70388007	     18.44999313	   -223.12638855	   -269.55671300	   -990.17430431	      0.00000000	      0.00000000	      0.00000000	   1496.90944116	      8.82364006	     -8.77124196	   -558.45593262	   -348.31173923	   -746.93258426	      0.00000000	      0.00000000	      0.00000000	   -477.36296249	      0.00000000	     -0.00000000	      0.00000000	      0.00000000	      0.00000000	      0.00000000	      0.00000000	      0.00000000	      0.00000000
      2.54000000	      0.00000000	     -0.00000000	      0.00000000	      0.00000000	      0.00000000	      0.00000000	      0.00000000	      0.00000000	      0.00000000	     -3.55470037	     17.84661293	   -214.76068115	   -267.68566937	   -990.20395357	      0.00000000	      0.00000000	      0.00000000	   1026.35566525	      9.98323070	     -9.63419239	   -564.90155029	   -348.07920010	   -747.16942056	      0.00000000	      0.00000000	     -0.00000000	   -383.60508810	      0.00000000	     -0.00000000	      0.00000000	      0.00000000	      0.00000000	      0.00000000	      0.00000000	      0.00000000	      0.00000000
      2.55000000	      0.00000000	     -0.00000000	      0.00000000	      0.00000000	      0.00000000	      0.00000000	      0.00000000	      0.00000000	      0.00000000	     -3.87698603	     17.15393448	   -205.60473633	   -263.24617619	   -988.95166934	      0.00000000	      0.00000000	      0.00000000	   1181.54604435	      9.96284868	    -10.77524654	   -572.31311035	   -347.71344221	   -746.70594237	      0.00000000	     -0.00000000	     -0.00000000	   -426.41587887	      0.00000000	     -0.00000000	      0.00000000	      0.00000000	      0.00000000	      0.00000000	      0.00000000	      0.00000000	      0.00000000
      2.56000000	      0.00000000	     -0.00000000	      0.00000000	      0.00000000	      0.00000000	      0.00000000	      0.00000000	      0.00000000	      0.00000000	     -4.78247404	     16.79721642	   -201.48132324	   -260.59428973	   -994.03305777	      0.00000000	      0.00000000	      0.00000000	   1258.37663945	     10.31138320	    -11.39349837	   -578.94677734	   -347.43227214	   -746.45225164	      0.00000000	      0.00000000	     -0.00000000	   -352.43270384	      0.00000000	     -0.00000000	      0.00000000	      0.00000000	      0.00000000	      0.00000000	      0.00000000	      0.00000000	      0.00000000
